<?xml version="1.0" encoding="UTF-8"?><svg xmlns="http://www.w3.org/2000/svg" width="1200" height="760" viewBox="0 0 1200 760" role="img" aria-labelledby="title desc"><title id="title">Cozy Lap</title><desc id="desc">Illustration for Cozy Lap</desc><defs><linearGradient id="bg" x1="0%" y1="0%" x2="100%" y2="100%"><stop offset="0%" stop-color="#fbeef0" /><stop offset="100%" stop-color="#f0d2d9" /></linearGradient><radialGradient id="mist" cx="20%" cy="0%" r="70%"><stop offset="0%" stop-color="#e7b5c4" stop-opacity="0.72" /><stop offset="100%" stop-color="#ffffff" stop-opacity="0" /></radialGradient></defs><rect width="1200" height="760" rx="36" fill="url(#bg)" /><rect width="1200" height="760" rx="36" fill="url(#mist)" /><rect x="14" y="14" width="1172" height="732" rx="28" fill="none" stroke="#5a3641" stroke-opacity="0.18" stroke-width="4" /><g transform="translate(-17 0)"><circle cx="388" cy="314" r="12" fill="#b86a80" opacity="0.20" /><circle cx="958" cy="90" r="10" fill="#b86a80" opacity="0.31" /><circle cx="1089" cy="87" r="8" fill="#b86a80" opacity="0.23" /><circle cx="428" cy="257" r="6" fill="#b86a80" opacity="0.12" /><circle cx="800" cy="99" r="11" fill="#b86a80" opacity="0.12" /><circle cx="460" cy="98" r="6" fill="#b86a80" opacity="0.14" /><circle cx="544" cy="153" r="6" fill="#b86a80" opacity="0.27" /><circle cx="802" cy="70" r="6" fill="#b86a80" opacity="0.21" /><g transform="translate(600 258)"><circle cx="0" cy="0" r="170" fill="#e7b5c4" opacity="0.35" /><circle cx="0" cy="0" r="150" stroke="#5a3641" stroke-width="8" stroke-linecap="round" stroke-linejoin="round" fill="none" opacity="0.28" /><path d="M-110 70 Q-58 12 -8 70" fill="#b86a80" opacity="0.7" /><path d="M110 70 Q58 12 8 70" fill="#b86a80" opacity="0.7" /><path d="M0 54 C28 24 56 16 76 -4 C48 -18 22 -8 0 14 C-22 -8 -48 -18 -76 -4 C-56 16 -28 24 0 54 Z" fill="#e7b5c4" opacity="0.95" /></g><ellipse cx="600" cy="640" rx="338" ry="88" fill="#e5c0cb" opacity="0.58" /><g transform="translate(0 -10)"><ellipse cx="550" cy="528" rx="238" ry="150" fill="#c88ca0" opacity="0.96" /><ellipse cx="794" cy="510" rx="150" ry="118" fill="#c88ca0" opacity="0.98" /><ellipse cx="866" cy="423" rx="45" ry="56" fill="#e7b9c7" opacity="0.95" /><ellipse cx="792" cy="415" rx="38" ry="48" fill="#e7b9c7" opacity="0.95" /><circle cx="831" cy="512" r="10" fill="#5a3641" /><circle cx="876" cy="544" r="8" fill="#8e5264" /><path d="M882 544 C912 536 934 526 954 510" stroke="#5a3641" stroke-width="7" stroke-linecap="round" fill="none" opacity="0.75" /><path d="M882 552 C914 552 934 560 954 574" stroke="#5a3641" stroke-width="7" stroke-linecap="round" fill="none" opacity="0.75" /><path d="M882 560 C914 570 934 592 952 612" stroke="#5a3641" stroke-width="7" stroke-linecap="round" fill="none" opacity="0.75" /><ellipse cx="702" cy="654" rx="64" ry="28" fill="#e7b9c7" opacity="0.62" /><ellipse cx="548" cy="656" rx="64" ry="28" fill="#e7b9c7" opacity="0.62" /></g></g></svg>