<?xml version="1.0" encoding="UTF-8"?><svg xmlns="http://www.w3.org/2000/svg" width="1200" height="760" viewBox="0 0 1200 760" role="img" aria-labelledby="title desc"><title id="title">Curiosity Nibble</title><desc id="desc">Illustration for Curiosity Nibble</desc><defs><linearGradient id="bg" x1="0%" y1="0%" x2="100%" y2="100%"><stop offset="0%" stop-color="#f7eddc" /><stop offset="100%" stop-color="#e7d4b5" /></linearGradient><radialGradient id="mist" cx="20%" cy="0%" r="70%"><stop offset="0%" stop-color="#f2c7a2" stop-opacity="0.72" /><stop offset="100%" stop-color="#ffffff" stop-opacity="0" /></radialGradient></defs><rect width="1200" height="760" rx="36" fill="url(#bg)" /><rect width="1200" height="760" rx="36" fill="url(#mist)" /><rect x="14" y="14" width="1172" height="732" rx="28" fill="none" stroke="#4f3a2a" stroke-opacity="0.18" stroke-width="4" /><g transform="translate(15 3)"><circle cx="991" cy="213" r="8" fill="#c78554" opacity="0.18" /><circle cx="211" cy="390" r="7" fill="#c78554" opacity="0.31" /><circle cx="862" cy="355" r="12" fill="#c78554" opacity="0.12" /><circle cx="866" cy="258" r="9" fill="#c78554" opacity="0.19" /><circle cx="929" cy="173" r="7" fill="#c78554" opacity="0.22" /><circle cx="246" cy="318" r="11" fill="#c78554" opacity="0.22" /><circle cx="489" cy="85" r="6" fill="#c78554" opacity="0.29" /><circle cx="1091" cy="70" r="6" fill="#c78554" opacity="0.23" /><g transform="translate(600 258)"><circle cx="0" cy="0" r="170" fill="#f2c7a2" opacity="0.35" /><circle cx="0" cy="0" r="150" stroke="#4f3a2a" stroke-width="8" stroke-linecap="round" stroke-linejoin="round" fill="none" opacity="0.28" /><circle cx="-22" cy="-10" r="62" fill="#f2c7a2" opacity="0.88" /><circle cx="-22" cy="-10" r="62" stroke="#4f3a2a" stroke-width="12" stroke-linecap="round" stroke-linejoin="round" fill="none" /><line x1="26" y1="36" x2="96" y2="102" stroke="#4f3a2a" stroke-width="12" stroke-linecap="round" stroke-linejoin="round" fill="none" /><path d="M-22 8 Q26 -30 58 10 Q16 44 -22 8 Z" fill="#c78554" opacity="0.72" /></g><ellipse cx="600" cy="640" rx="338" ry="88" fill="#d7c0a1" opacity="0.58" /><g transform="translate(0 -6)"><ellipse cx="550" cy="528" rx="238" ry="150" fill="#b9845f" opacity="0.96" /><ellipse cx="794" cy="510" rx="150" ry="118" fill="#b9845f" opacity="0.98" /><ellipse cx="866" cy="412" rx="45" ry="56" fill="#dbac89" opacity="0.95" /><ellipse cx="792" cy="426" rx="38" ry="48" fill="#dbac89" opacity="0.95" /><circle cx="832" cy="512" r="10" fill="#4f3a2a" /><circle cx="876" cy="544" r="8" fill="#7a4e43" /><path d="M882 544 C912 536 934 526 954 510" stroke="#4f3a2a" stroke-width="7" stroke-linecap="round" fill="none" opacity="0.75" /><path d="M882 552 C914 552 934 560 954 574" stroke="#4f3a2a" stroke-width="7" stroke-linecap="round" fill="none" opacity="0.75" /><path d="M882 560 C914 570 934 592 952 612" stroke="#4f3a2a" stroke-width="7" stroke-linecap="round" fill="none" opacity="0.75" /><ellipse cx="702" cy="654" rx="64" ry="28" fill="#dbac89" opacity="0.62" /><ellipse cx="548" cy="656" rx="64" ry="28" fill="#dbac89" opacity="0.62" /></g></g></svg>