<?xml version="1.0" encoding="UTF-8"?><svg xmlns="http://www.w3.org/2000/svg" width="1200" height="760" viewBox="0 0 1200 760" role="img" aria-labelledby="title desc"><title id="title">Gentle Groom</title><desc id="desc">Illustration for Gentle Groom</desc><defs><linearGradient id="bg" x1="0%" y1="0%" x2="100%" y2="100%"><stop offset="0%" stop-color="#fbf1e8" /><stop offset="100%" stop-color="#edd6c3" /></linearGradient><radialGradient id="mist" cx="20%" cy="0%" r="70%"><stop offset="0%" stop-color="#efc59f" stop-opacity="0.72" /><stop offset="100%" stop-color="#ffffff" stop-opacity="0" /></radialGradient></defs><rect width="1200" height="760" rx="36" fill="url(#bg)" /><rect width="1200" height="760" rx="36" fill="url(#mist)" /><rect x="14" y="14" width="1172" height="732" rx="28" fill="none" stroke="#584133" stroke-opacity="0.18" stroke-width="4" /><g transform="translate(-28 7)"><circle cx="306" cy="345" r="6" fill="#c47f4e" opacity="0.19" /><circle cx="731" cy="142" r="8" fill="#c47f4e" opacity="0.16" /><circle cx="782" cy="128" r="8" fill="#c47f4e" opacity="0.19" /><circle cx="551" cy="395" r="7" fill="#c47f4e" opacity="0.18" /><circle cx="891" cy="389" r="6" fill="#c47f4e" opacity="0.26" /><circle cx="659" cy="265" r="14" fill="#c47f4e" opacity="0.30" /><circle cx="965" cy="166" r="8" fill="#c47f4e" opacity="0.26" /><circle cx="421" cy="70" r="8" fill="#c47f4e" opacity="0.17" /><g transform="translate(600 258)"><circle cx="0" cy="0" r="170" fill="#efc59f" opacity="0.35" /><circle cx="0" cy="0" r="150" stroke="#584133" stroke-width="8" stroke-linecap="round" stroke-linejoin="round" fill="none" opacity="0.28" /><rect x="-20" y="-92" width="40" height="124" rx="18" fill="#c47f4e" opacity="0.74" /><path d="M-70 34 H70 V72 Q0 110 -70 72 Z" fill="#efc59f" opacity="0.88" /><line x1="-70" y1="34" x2="70" y2="34" stroke="#584133" stroke-width="8" stroke-linecap="round" stroke-linejoin="round" fill="none" /><line x1="-40" y1="58" x2="-20" y2="86" stroke="#584133" stroke-width="8" stroke-linecap="round" stroke-linejoin="round" fill="none" /><line x1="0" y1="58" x2="0" y2="90" stroke="#584133" stroke-width="8" stroke-linecap="round" stroke-linejoin="round" fill="none" /><line x1="40" y1="58" x2="20" y2="86" stroke="#584133" stroke-width="8" stroke-linecap="round" stroke-linejoin="round" fill="none" /></g><ellipse cx="600" cy="640" rx="338" ry="88" fill="#dfc3a8" opacity="0.58" /><g transform="translate(0 4)"><ellipse cx="550" cy="528" rx="238" ry="150" fill="#c08e67" opacity="0.96" /><ellipse cx="794" cy="510" rx="150" ry="118" fill="#c08e67" opacity="0.98" /><ellipse cx="866" cy="419" rx="45" ry="56" fill="#e2b995" opacity="0.95" /><ellipse cx="792" cy="419" rx="38" ry="48" fill="#e2b995" opacity="0.95" /><circle cx="830" cy="512" r="10" fill="#584133" /><circle cx="876" cy="544" r="8" fill="#865846" /><path d="M882 544 C912 536 934 526 954 510" stroke="#584133" stroke-width="7" stroke-linecap="round" fill="none" opacity="0.75" /><path d="M882 552 C914 552 934 560 954 574" stroke="#584133" stroke-width="7" stroke-linecap="round" fill="none" opacity="0.75" /><path d="M882 560 C914 570 934 592 952 612" stroke="#584133" stroke-width="7" stroke-linecap="round" fill="none" opacity="0.75" /><ellipse cx="702" cy="654" rx="64" ry="28" fill="#e2b995" opacity="0.62" /><ellipse cx="548" cy="656" rx="64" ry="28" fill="#e2b995" opacity="0.62" /></g></g></svg>