<?xml version="1.0" encoding="UTF-8"?><svg xmlns="http://www.w3.org/2000/svg" width="1200" height="760" viewBox="0 0 1200 760" role="img" aria-labelledby="title desc"><title id="title">Gnawshade</title><desc id="desc">Illustration for Gnawshade</desc><defs><linearGradient id="bg" x1="0%" y1="0%" x2="100%" y2="100%"><stop offset="0%" stop-color="#eef8f6" /><stop offset="100%" stop-color="#cfe7df" /></linearGradient><radialGradient id="mist" cx="20%" cy="0%" r="70%"><stop offset="0%" stop-color="#a8d9d0" stop-opacity="0.72" /><stop offset="100%" stop-color="#ffffff" stop-opacity="0" /></radialGradient></defs><rect width="1200" height="760" rx="36" fill="url(#bg)" /><rect width="1200" height="760" rx="36" fill="url(#mist)" /><rect x="14" y="14" width="1172" height="732" rx="28" fill="none" stroke="#2d4f4b" stroke-opacity="0.18" stroke-width="4" /><g transform="translate(2 18)"><circle cx="581" cy="87" r="6" fill="#4f9f90" opacity="0.31" /><circle cx="499" cy="393" r="6" fill="#4f9f90" opacity="0.19" /><circle cx="1058" cy="233" r="12" fill="#4f9f90" opacity="0.22" /><circle cx="675" cy="221" r="7" fill="#4f9f90" opacity="0.31" /><circle cx="220" cy="87" r="9" fill="#4f9f90" opacity="0.20" /><circle cx="957" cy="286" r="12" fill="#4f9f90" opacity="0.18" /><circle cx="724" cy="121" r="10" fill="#4f9f90" opacity="0.20" /><circle cx="641" cy="70" r="12" fill="#4f9f90" opacity="0.27" /><g transform="translate(600 258)"><circle cx="0" cy="0" r="170" fill="#a8d9d0" opacity="0.35" /><circle cx="0" cy="0" r="150" stroke="#2d4f4b" stroke-width="8" stroke-linecap="round" stroke-linejoin="round" fill="none" opacity="0.28" /><circle cx="-18" cy="-6" r="64" fill="#4f9f90" opacity="0.64" /><circle cx="20" cy="-24" r="60" fill="#a8d9d0" opacity="0.95" /><path d="M-26 52 Q42 -48 92 44 Q42 56 -26 52 Z" fill="#2d4f4b" opacity="0.22" /></g><ellipse cx="600" cy="640" rx="338" ry="88" fill="#bad8d0" opacity="0.58" /><g transform="translate(0 -4)"><ellipse cx="550" cy="528" rx="238" ry="150" fill="#6fae9f" opacity="0.96" /><ellipse cx="794" cy="510" rx="150" ry="118" fill="#6fae9f" opacity="0.98" /><ellipse cx="866" cy="422" rx="45" ry="56" fill="#abd3cb" opacity="0.95" /><ellipse cx="792" cy="416" rx="38" ry="48" fill="#abd3cb" opacity="0.95" /><circle cx="837" cy="512" r="10" fill="#2d4f4b" /><circle cx="876" cy="544" r="8" fill="#44746d" /><path d="M882 544 C912 536 934 526 954 510" stroke="#2d4f4b" stroke-width="7" stroke-linecap="round" fill="none" opacity="0.75" /><path d="M882 552 C914 552 934 560 954 574" stroke="#2d4f4b" stroke-width="7" stroke-linecap="round" fill="none" opacity="0.75" /><path d="M882 560 C914 570 934 592 952 612" stroke="#2d4f4b" stroke-width="7" stroke-linecap="round" fill="none" opacity="0.75" /><ellipse cx="702" cy="654" rx="64" ry="28" fill="#abd3cb" opacity="0.62" /><ellipse cx="548" cy="656" rx="64" ry="28" fill="#abd3cb" opacity="0.62" /></g></g></svg>