<?xml version="1.0" encoding="UTF-8"?><svg xmlns="http://www.w3.org/2000/svg" width="1200" height="760" viewBox="0 0 1200 760" role="img" aria-labelledby="title desc"><title id="title">Hay Horizon</title><desc id="desc">Illustration for Hay Horizon</desc><defs><linearGradient id="bg" x1="0%" y1="0%" x2="100%" y2="100%"><stop offset="0%" stop-color="#eef8f6" /><stop offset="100%" stop-color="#cfe7df" /></linearGradient><radialGradient id="mist" cx="20%" cy="0%" r="70%"><stop offset="0%" stop-color="#a8d9d0" stop-opacity="0.72" /><stop offset="100%" stop-color="#ffffff" stop-opacity="0" /></radialGradient></defs><rect width="1200" height="760" rx="36" fill="url(#bg)" /><rect width="1200" height="760" rx="36" fill="url(#mist)" /><rect x="14" y="14" width="1172" height="732" rx="28" fill="none" stroke="#2d4f4b" stroke-opacity="0.18" stroke-width="4" /><g transform="translate(19 17)"><circle cx="477" cy="330" r="8" fill="#4f9f90" opacity="0.31" /><circle cx="801" cy="99" r="10" fill="#4f9f90" opacity="0.32" /><circle cx="388" cy="253" r="11" fill="#4f9f90" opacity="0.24" /><circle cx="492" cy="169" r="7" fill="#4f9f90" opacity="0.13" /><circle cx="260" cy="213" r="13" fill="#4f9f90" opacity="0.25" /><circle cx="324" cy="289" r="12" fill="#4f9f90" opacity="0.32" /><circle cx="1082" cy="191" r="9" fill="#4f9f90" opacity="0.15" /><circle cx="671" cy="70" r="13" fill="#4f9f90" opacity="0.32" /><g transform="translate(600 258)"><circle cx="0" cy="0" r="170" fill="#a8d9d0" opacity="0.35" /><circle cx="0" cy="0" r="150" stroke="#2d4f4b" stroke-width="8" stroke-linecap="round" stroke-linejoin="round" fill="none" opacity="0.28" /><circle cx="0" cy="-42" r="34" fill="#4f9f90" opacity="0.8" /><path d="M-122 44 Q0 -50 122 44 Z" fill="#4f9f90" opacity="0.55" /><line x1="-128" y1="44" x2="128" y2="44" stroke="#2d4f4b" stroke-width="8" stroke-linecap="round" stroke-linejoin="round" fill="none" /></g><ellipse cx="600" cy="640" rx="338" ry="88" fill="#bad8d0" opacity="0.58" /><g transform="translate(0 8)"><ellipse cx="550" cy="528" rx="238" ry="150" fill="#6fae9f" opacity="0.96" /><ellipse cx="794" cy="510" rx="150" ry="118" fill="#6fae9f" opacity="0.98" /><ellipse cx="866" cy="424" rx="45" ry="56" fill="#abd3cb" opacity="0.95" /><ellipse cx="792" cy="414" rx="38" ry="48" fill="#abd3cb" opacity="0.95" /><circle cx="827" cy="512" r="10" fill="#2d4f4b" /><circle cx="876" cy="544" r="8" fill="#44746d" /><path d="M882 544 C912 536 934 526 954 510" stroke="#2d4f4b" stroke-width="7" stroke-linecap="round" fill="none" opacity="0.75" /><path d="M882 552 C914 552 934 560 954 574" stroke="#2d4f4b" stroke-width="7" stroke-linecap="round" fill="none" opacity="0.75" /><path d="M882 560 C914 570 934 592 952 612" stroke="#2d4f4b" stroke-width="7" stroke-linecap="round" fill="none" opacity="0.75" /><ellipse cx="702" cy="654" rx="64" ry="28" fill="#abd3cb" opacity="0.62" /><ellipse cx="548" cy="656" rx="64" ry="28" fill="#abd3cb" opacity="0.62" /></g></g></svg>