<?xml version="1.0" encoding="UTF-8"?><svg xmlns="http://www.w3.org/2000/svg" width="1200" height="760" viewBox="0 0 1200 760" role="img" aria-labelledby="title desc"><title id="title">Herd Harmony</title><desc id="desc">Illustration for Herd Harmony</desc><defs><linearGradient id="bg" x1="0%" y1="0%" x2="100%" y2="100%"><stop offset="0%" stop-color="#f3eff9" /><stop offset="100%" stop-color="#d9d0ea" /></linearGradient><radialGradient id="mist" cx="20%" cy="0%" r="70%"><stop offset="0%" stop-color="#c3bddd" stop-opacity="0.72" /><stop offset="100%" stop-color="#ffffff" stop-opacity="0" /></radialGradient></defs><rect width="1200" height="760" rx="36" fill="url(#bg)" /><rect width="1200" height="760" rx="36" fill="url(#mist)" /><rect x="14" y="14" width="1172" height="732" rx="28" fill="none" stroke="#403b5e" stroke-opacity="0.18" stroke-width="4" /><g transform="translate(-7 10)"><circle cx="459" cy="195" r="5" fill="#7f73ab" opacity="0.19" /><circle cx="667" cy="291" r="7" fill="#7f73ab" opacity="0.24" /><circle cx="535" cy="104" r="10" fill="#7f73ab" opacity="0.25" /><circle cx="344" cy="276" r="6" fill="#7f73ab" opacity="0.26" /><circle cx="366" cy="162" r="14" fill="#7f73ab" opacity="0.12" /><circle cx="893" cy="362" r="14" fill="#7f73ab" opacity="0.21" /><circle cx="446" cy="163" r="5" fill="#7f73ab" opacity="0.31" /><circle cx="1008" cy="70" r="14" fill="#7f73ab" opacity="0.15" /><g transform="translate(600 258)"><circle cx="0" cy="0" r="170" fill="#c3bddd" opacity="0.35" /><circle cx="0" cy="0" r="150" stroke="#403b5e" stroke-width="8" stroke-linecap="round" stroke-linejoin="round" fill="none" opacity="0.28" /><circle cx="-56" cy="8" r="34" fill="#7f73ab" opacity="0.72" /><circle cx="56" cy="8" r="34" fill="#7f73ab" opacity="0.72" /><circle cx="0" cy="-28" r="34" fill="#7f73ab" opacity="0.72" /><path d="M-56 8 Q0 72 56 8 Q0 -48 -56 8 Z" fill="#c3bddd" opacity="0.4" /></g><ellipse cx="600" cy="640" rx="338" ry="88" fill="#cec7e1" opacity="0.58" /><g transform="translate(0 2)"><ellipse cx="550" cy="528" rx="238" ry="150" fill="#978ebe" opacity="0.96" /><ellipse cx="794" cy="510" rx="150" ry="118" fill="#978ebe" opacity="0.98" /><ellipse cx="866" cy="425" rx="45" ry="56" fill="#cbc5e2" opacity="0.95" /><ellipse cx="792" cy="413" rx="38" ry="48" fill="#cbc5e2" opacity="0.95" /><circle cx="829" cy="512" r="10" fill="#403b5e" /><circle cx="876" cy="544" r="8" fill="#5f5986" /><path d="M882 544 C912 536 934 526 954 510" stroke="#403b5e" stroke-width="7" stroke-linecap="round" fill="none" opacity="0.75" /><path d="M882 552 C914 552 934 560 954 574" stroke="#403b5e" stroke-width="7" stroke-linecap="round" fill="none" opacity="0.75" /><path d="M882 560 C914 570 934 592 952 612" stroke="#403b5e" stroke-width="7" stroke-linecap="round" fill="none" opacity="0.75" /><ellipse cx="702" cy="654" rx="64" ry="28" fill="#cbc5e2" opacity="0.62" /><ellipse cx="548" cy="656" rx="64" ry="28" fill="#cbc5e2" opacity="0.62" /></g></g></svg>