<?xml version="1.0" encoding="UTF-8"?><svg xmlns="http://www.w3.org/2000/svg" width="1200" height="760" viewBox="0 0 1200 760" role="img" aria-labelledby="title desc"><title id="title">Herd Check-In</title><desc id="desc">Illustration for Herd Check-In</desc><defs><linearGradient id="bg" x1="0%" y1="0%" x2="100%" y2="100%"><stop offset="0%" stop-color="#fbeef0" /><stop offset="100%" stop-color="#f0d2d9" /></linearGradient><radialGradient id="mist" cx="20%" cy="0%" r="70%"><stop offset="0%" stop-color="#e7b5c4" stop-opacity="0.72" /><stop offset="100%" stop-color="#ffffff" stop-opacity="0" /></radialGradient></defs><rect width="1200" height="760" rx="36" fill="url(#bg)" /><rect width="1200" height="760" rx="36" fill="url(#mist)" /><rect x="14" y="14" width="1172" height="732" rx="28" fill="none" stroke="#5a3641" stroke-opacity="0.18" stroke-width="4" /><g transform="translate(17 13)"><circle cx="1006" cy="310" r="7" fill="#b86a80" opacity="0.24" /><circle cx="844" cy="325" r="8" fill="#b86a80" opacity="0.20" /><circle cx="579" cy="147" r="13" fill="#b86a80" opacity="0.32" /><circle cx="1063" cy="254" r="11" fill="#b86a80" opacity="0.26" /><circle cx="400" cy="171" r="5" fill="#b86a80" opacity="0.25" /><circle cx="382" cy="291" r="11" fill="#b86a80" opacity="0.24" /><circle cx="458" cy="90" r="13" fill="#b86a80" opacity="0.21" /><circle cx="785" cy="70" r="11" fill="#b86a80" opacity="0.32" /><g transform="translate(600 258)"><circle cx="0" cy="0" r="170" fill="#e7b5c4" opacity="0.35" /><circle cx="0" cy="0" r="150" stroke="#5a3641" stroke-width="8" stroke-linecap="round" stroke-linejoin="round" fill="none" opacity="0.28" /><circle cx="0" cy="0" r="92" stroke="#5a3641" stroke-width="8" stroke-linecap="round" stroke-linejoin="round" fill="none" /><circle cx="-74" cy="-14" r="22" fill="#b86a80" opacity="0.8" /><circle cx="74" cy="-14" r="22" fill="#b86a80" opacity="0.8" /><circle cx="0" cy="62" r="22" fill="#b86a80" opacity="0.8" /><path d="M-52 -10 Q0 20 52 -10" stroke="#5a3641" stroke-width="8" stroke-linecap="round" stroke-linejoin="round" fill="none" /><path d="M52 -10 Q20 34 0 52" stroke="#5a3641" stroke-width="8" stroke-linecap="round" stroke-linejoin="round" fill="none" /><path d="M-52 -10 Q-20 34 0 52" stroke="#5a3641" stroke-width="8" stroke-linecap="round" stroke-linejoin="round" fill="none" /></g><ellipse cx="600" cy="640" rx="338" ry="88" fill="#e5c0cb" opacity="0.58" /><g transform="translate(0 2)"><ellipse cx="550" cy="528" rx="238" ry="150" fill="#c88ca0" opacity="0.96" /><ellipse cx="794" cy="510" rx="150" ry="118" fill="#c88ca0" opacity="0.98" /><ellipse cx="866" cy="432" rx="45" ry="56" fill="#e7b9c7" opacity="0.95" /><ellipse cx="792" cy="406" rx="38" ry="48" fill="#e7b9c7" opacity="0.95" /><circle cx="829" cy="512" r="10" fill="#5a3641" /><circle cx="876" cy="544" r="8" fill="#8e5264" /><path d="M882 544 C912 536 934 526 954 510" stroke="#5a3641" stroke-width="7" stroke-linecap="round" fill="none" opacity="0.75" /><path d="M882 552 C914 552 934 560 954 574" stroke="#5a3641" stroke-width="7" stroke-linecap="round" fill="none" opacity="0.75" /><path d="M882 560 C914 570 934 592 952 612" stroke="#5a3641" stroke-width="7" stroke-linecap="round" fill="none" opacity="0.75" /><ellipse cx="702" cy="654" rx="64" ry="28" fill="#e7b9c7" opacity="0.62" /><ellipse cx="548" cy="656" rx="64" ry="28" fill="#e7b9c7" opacity="0.62" /></g></g></svg>