<?xml version="1.0" encoding="UTF-8"?><svg xmlns="http://www.w3.org/2000/svg" width="1200" height="760" viewBox="0 0 1200 760" role="img" aria-labelledby="title desc"><title id="title">Homecoming Hop</title><desc id="desc">Illustration for Homecoming Hop</desc><defs><linearGradient id="bg" x1="0%" y1="0%" x2="100%" y2="100%"><stop offset="0%" stop-color="#f6f1e9" /><stop offset="100%" stop-color="#e6dccd" /></linearGradient><radialGradient id="mist" cx="20%" cy="0%" r="70%"><stop offset="0%" stop-color="#d8c2a2" stop-opacity="0.72" /><stop offset="100%" stop-color="#ffffff" stop-opacity="0" /></radialGradient></defs><rect width="1200" height="760" rx="36" fill="url(#bg)" /><rect width="1200" height="760" rx="36" fill="url(#mist)" /><rect x="14" y="14" width="1172" height="732" rx="28" fill="none" stroke="#504433" stroke-opacity="0.18" stroke-width="4" /><g transform="translate(-21 -6)"><circle cx="894" cy="371" r="11" fill="#a48458" opacity="0.15" /><circle cx="210" cy="400" r="11" fill="#a48458" opacity="0.12" /><circle cx="349" cy="197" r="11" fill="#a48458" opacity="0.28" /><circle cx="984" cy="361" r="11" fill="#a48458" opacity="0.29" /><circle cx="643" cy="316" r="9" fill="#a48458" opacity="0.30" /><circle cx="787" cy="233" r="5" fill="#a48458" opacity="0.22" /><circle cx="333" cy="84" r="7" fill="#a48458" opacity="0.30" /><circle cx="894" cy="70" r="9" fill="#a48458" opacity="0.30" /><g transform="translate(600 258)"><circle cx="0" cy="0" r="170" fill="#d8c2a2" opacity="0.35" /><circle cx="0" cy="0" r="150" stroke="#504433" stroke-width="8" stroke-linecap="round" stroke-linejoin="round" fill="none" opacity="0.28" /><path d="M-102 16 L0 -82 L102 16 V86 H-102 Z" fill="#a48458" opacity="0.64" /><rect x="-34" y="22" width="68" height="64" rx="18" fill="#d8c2a2" opacity="0.94" /><path d="M-122 -10 Q-24 -118 92 -34" stroke="#504433" stroke-width="12" stroke-linecap="round" stroke-linejoin="round" fill="none" /></g><ellipse cx="600" cy="640" rx="338" ry="88" fill="#d8ccb8" opacity="0.58" /><g transform="translate(0 -6)"><ellipse cx="550" cy="528" rx="238" ry="150" fill="#b69772" opacity="0.96" /><ellipse cx="794" cy="510" rx="150" ry="118" fill="#b69772" opacity="0.98" /><ellipse cx="866" cy="428" rx="45" ry="56" fill="#d9bf9c" opacity="0.95" /><ellipse cx="792" cy="410" rx="38" ry="48" fill="#d9bf9c" opacity="0.95" /><circle cx="834" cy="512" r="10" fill="#504433" /><circle cx="876" cy="544" r="8" fill="#7a664d" /><path d="M882 544 C912 536 934 526 954 510" stroke="#504433" stroke-width="7" stroke-linecap="round" fill="none" opacity="0.75" /><path d="M882 552 C914 552 934 560 954 574" stroke="#504433" stroke-width="7" stroke-linecap="round" fill="none" opacity="0.75" /><path d="M882 560 C914 570 934 592 952 612" stroke="#504433" stroke-width="7" stroke-linecap="round" fill="none" opacity="0.75" /><ellipse cx="702" cy="654" rx="64" ry="28" fill="#d9bf9c" opacity="0.62" /><ellipse cx="548" cy="656" rx="64" ry="28" fill="#d9bf9c" opacity="0.62" /></g></g></svg>