<?xml version="1.0" encoding="UTF-8"?><svg xmlns="http://www.w3.org/2000/svg" width="1200" height="760" viewBox="0 0 1200 760" role="img" aria-labelledby="title desc"><title id="title">Lady Nibble</title><desc id="desc">Illustration for Lady Nibble</desc><defs><linearGradient id="bg" x1="0%" y1="0%" x2="100%" y2="100%"><stop offset="0%" stop-color="#f7eddc" /><stop offset="100%" stop-color="#e7d4b5" /></linearGradient><radialGradient id="mist" cx="20%" cy="0%" r="70%"><stop offset="0%" stop-color="#f2c7a2" stop-opacity="0.72" /><stop offset="100%" stop-color="#ffffff" stop-opacity="0" /></radialGradient></defs><rect width="1200" height="760" rx="36" fill="url(#bg)" /><rect width="1200" height="760" rx="36" fill="url(#mist)" /><rect x="14" y="14" width="1172" height="732" rx="28" fill="none" stroke="#4f3a2a" stroke-opacity="0.18" stroke-width="4" /><g transform="translate(-5 -19)"><circle cx="894" cy="170" r="5" fill="#c78554" opacity="0.20" /><circle cx="859" cy="201" r="13" fill="#c78554" opacity="0.27" /><circle cx="882" cy="240" r="7" fill="#c78554" opacity="0.23" /><circle cx="536" cy="393" r="6" fill="#c78554" opacity="0.32" /><circle cx="149" cy="207" r="5" fill="#c78554" opacity="0.26" /><circle cx="369" cy="246" r="5" fill="#c78554" opacity="0.20" /><circle cx="688" cy="156" r="11" fill="#c78554" opacity="0.32" /><circle cx="189" cy="70" r="14" fill="#c78554" opacity="0.29" /><g transform="translate(600 258)"><circle cx="0" cy="0" r="170" fill="#f2c7a2" opacity="0.35" /><circle cx="0" cy="0" r="150" stroke="#4f3a2a" stroke-width="8" stroke-linecap="round" stroke-linejoin="round" fill="none" opacity="0.28" /><circle cx="0" cy="0" r="16" fill="#4f3a2a" /><circle cx="-40" cy="0" r="24" fill="#c78554" opacity="0.8" /><circle cx="40" cy="0" r="24" fill="#c78554" opacity="0.8" /><circle cx="0" cy="-40" r="24" fill="#c78554" opacity="0.8" /><circle cx="0" cy="40" r="24" fill="#c78554" opacity="0.8" /><line x1="0" y1="62" x2="0" y2="108" stroke="#4f3a2a" stroke-width="8" stroke-linecap="round" stroke-linejoin="round" fill="none" /></g><ellipse cx="600" cy="640" rx="338" ry="88" fill="#d7c0a1" opacity="0.58" /><g transform="translate(0 -3)"><ellipse cx="550" cy="528" rx="238" ry="150" fill="#b9845f" opacity="0.96" /><ellipse cx="794" cy="510" rx="150" ry="118" fill="#b9845f" opacity="0.98" /><ellipse cx="866" cy="423" rx="45" ry="56" fill="#dbac89" opacity="0.95" /><ellipse cx="792" cy="415" rx="38" ry="48" fill="#dbac89" opacity="0.95" /><circle cx="834" cy="512" r="10" fill="#4f3a2a" /><circle cx="876" cy="544" r="8" fill="#7a4e43" /><path d="M882 544 C912 536 934 526 954 510" stroke="#4f3a2a" stroke-width="7" stroke-linecap="round" fill="none" opacity="0.75" /><path d="M882 552 C914 552 934 560 954 574" stroke="#4f3a2a" stroke-width="7" stroke-linecap="round" fill="none" opacity="0.75" /><path d="M882 560 C914 570 934 592 952 612" stroke="#4f3a2a" stroke-width="7" stroke-linecap="round" fill="none" opacity="0.75" /><ellipse cx="702" cy="654" rx="64" ry="28" fill="#dbac89" opacity="0.62" /><ellipse cx="548" cy="656" rx="64" ry="28" fill="#dbac89" opacity="0.62" /></g></g></svg>