<?xml version="1.0" encoding="UTF-8"?><svg xmlns="http://www.w3.org/2000/svg" width="1200" height="760" viewBox="0 0 1200 760" role="img" aria-labelledby="title desc"><title id="title">New Hideout</title><desc id="desc">Illustration for New Hideout</desc><defs><linearGradient id="bg" x1="0%" y1="0%" x2="100%" y2="100%"><stop offset="0%" stop-color="#f6f1e9" /><stop offset="100%" stop-color="#e6dccd" /></linearGradient><radialGradient id="mist" cx="20%" cy="0%" r="70%"><stop offset="0%" stop-color="#d8c2a2" stop-opacity="0.72" /><stop offset="100%" stop-color="#ffffff" stop-opacity="0" /></radialGradient></defs><rect width="1200" height="760" rx="36" fill="url(#bg)" /><rect width="1200" height="760" rx="36" fill="url(#mist)" /><rect x="14" y="14" width="1172" height="732" rx="28" fill="none" stroke="#504433" stroke-opacity="0.18" stroke-width="4" /><g transform="translate(-24 15)"><circle cx="899" cy="110" r="12" fill="#a48458" opacity="0.28" /><circle cx="300" cy="91" r="7" fill="#a48458" opacity="0.30" /><circle cx="629" cy="113" r="5" fill="#a48458" opacity="0.31" /><circle cx="869" cy="413" r="9" fill="#a48458" opacity="0.24" /><circle cx="393" cy="276" r="10" fill="#a48458" opacity="0.25" /><circle cx="1051" cy="386" r="9" fill="#a48458" opacity="0.25" /><circle cx="486" cy="168" r="12" fill="#a48458" opacity="0.29" /><circle cx="715" cy="70" r="13" fill="#a48458" opacity="0.29" /><g transform="translate(600 258)"><circle cx="0" cy="0" r="170" fill="#d8c2a2" opacity="0.35" /><circle cx="0" cy="0" r="150" stroke="#504433" stroke-width="8" stroke-linecap="round" stroke-linejoin="round" fill="none" opacity="0.28" /><path d="M-112 44 Q0 -80 112 44 V92 H-112 Z" fill="#a48458" opacity="0.66" /><rect x="-58" y="24" width="116" height="68" rx="30" fill="#d8c2a2" opacity="0.9" /><circle cx="0" cy="58" r="10" fill="#504433" /></g><ellipse cx="600" cy="640" rx="338" ry="88" fill="#d8ccb8" opacity="0.58" /><g transform="translate(0 -3)"><ellipse cx="550" cy="528" rx="238" ry="150" fill="#b69772" opacity="0.96" /><ellipse cx="794" cy="510" rx="150" ry="118" fill="#b69772" opacity="0.98" /><ellipse cx="866" cy="431" rx="45" ry="56" fill="#d9bf9c" opacity="0.95" /><ellipse cx="792" cy="407" rx="38" ry="48" fill="#d9bf9c" opacity="0.95" /><circle cx="822" cy="512" r="10" fill="#504433" /><circle cx="876" cy="544" r="8" fill="#7a664d" /><path d="M882 544 C912 536 934 526 954 510" stroke="#504433" stroke-width="7" stroke-linecap="round" fill="none" opacity="0.75" /><path d="M882 552 C914 552 934 560 954 574" stroke="#504433" stroke-width="7" stroke-linecap="round" fill="none" opacity="0.75" /><path d="M882 560 C914 570 934 592 952 612" stroke="#504433" stroke-width="7" stroke-linecap="round" fill="none" opacity="0.75" /><ellipse cx="702" cy="654" rx="64" ry="28" fill="#d9bf9c" opacity="0.62" /><ellipse cx="548" cy="656" rx="64" ry="28" fill="#d9bf9c" opacity="0.62" /></g></g></svg>