<?xml version="1.0" encoding="UTF-8"?><svg xmlns="http://www.w3.org/2000/svg" width="1200" height="760" viewBox="0 0 1200 760" role="img" aria-labelledby="title desc"><title id="title">Nose Boop</title><desc id="desc">Illustration for Nose Boop</desc><defs><linearGradient id="bg" x1="0%" y1="0%" x2="100%" y2="100%"><stop offset="0%" stop-color="#f6f1e9" /><stop offset="100%" stop-color="#e6dccd" /></linearGradient><radialGradient id="mist" cx="20%" cy="0%" r="70%"><stop offset="0%" stop-color="#d8c2a2" stop-opacity="0.72" /><stop offset="100%" stop-color="#ffffff" stop-opacity="0" /></radialGradient></defs><rect width="1200" height="760" rx="36" fill="url(#bg)" /><rect width="1200" height="760" rx="36" fill="url(#mist)" /><rect x="14" y="14" width="1172" height="732" rx="28" fill="none" stroke="#504433" stroke-opacity="0.18" stroke-width="4" /><g transform="translate(23 8)"><circle cx="824" cy="192" r="9" fill="#a48458" opacity="0.25" /><circle cx="706" cy="309" r="9" fill="#a48458" opacity="0.14" /><circle cx="980" cy="285" r="9" fill="#a48458" opacity="0.32" /><circle cx="292" cy="120" r="5" fill="#a48458" opacity="0.12" /><circle cx="652" cy="109" r="7" fill="#a48458" opacity="0.18" /><circle cx="765" cy="75" r="11" fill="#a48458" opacity="0.30" /><circle cx="797" cy="76" r="11" fill="#a48458" opacity="0.27" /><circle cx="891" cy="70" r="13" fill="#a48458" opacity="0.24" /><g transform="translate(600 258)"><circle cx="0" cy="0" r="170" fill="#d8c2a2" opacity="0.35" /><circle cx="0" cy="0" r="150" stroke="#504433" stroke-width="8" stroke-linecap="round" stroke-linejoin="round" fill="none" opacity="0.28" /><circle cx="-44" cy="0" r="46" fill="#a48458" opacity="0.68" /><circle cx="44" cy="0" r="46" fill="#a48458" opacity="0.68" /><path d="M0 48 C30 18 52 6 72 -12 C47 -22 23 -15 0 8 C-23 -15 -47 -22 -72 -12 C-52 6 -30 18 0 48 Z" fill="#504433" opacity="0.2" /><circle cx="0" cy="5" r="11" fill="#504433" /></g><ellipse cx="600" cy="640" rx="338" ry="88" fill="#d8ccb8" opacity="0.58" /><g transform="translate(0 3)"><ellipse cx="550" cy="528" rx="238" ry="150" fill="#b69772" opacity="0.96" /><ellipse cx="794" cy="510" rx="150" ry="118" fill="#b69772" opacity="0.98" /><ellipse cx="866" cy="432" rx="45" ry="56" fill="#d9bf9c" opacity="0.95" /><ellipse cx="792" cy="406" rx="38" ry="48" fill="#d9bf9c" opacity="0.95" /><circle cx="823" cy="512" r="10" fill="#504433" /><circle cx="876" cy="544" r="8" fill="#7a664d" /><path d="M882 544 C912 536 934 526 954 510" stroke="#504433" stroke-width="7" stroke-linecap="round" fill="none" opacity="0.75" /><path d="M882 552 C914 552 934 560 954 574" stroke="#504433" stroke-width="7" stroke-linecap="round" fill="none" opacity="0.75" /><path d="M882 560 C914 570 934 592 952 612" stroke="#504433" stroke-width="7" stroke-linecap="round" fill="none" opacity="0.75" /><ellipse cx="702" cy="654" rx="64" ry="28" fill="#d9bf9c" opacity="0.62" /><ellipse cx="548" cy="656" rx="64" ry="28" fill="#d9bf9c" opacity="0.62" /></g></g></svg>