<?xml version="1.0" encoding="UTF-8"?><svg xmlns="http://www.w3.org/2000/svg" width="1200" height="760" viewBox="0 0 1200 760" role="img" aria-labelledby="title desc"><title id="title">Paper Crinkle</title><desc id="desc">Illustration for Paper Crinkle</desc><defs><linearGradient id="bg" x1="0%" y1="0%" x2="100%" y2="100%"><stop offset="0%" stop-color="#f6f1e9" /><stop offset="100%" stop-color="#e6dccd" /></linearGradient><radialGradient id="mist" cx="20%" cy="0%" r="70%"><stop offset="0%" stop-color="#d8c2a2" stop-opacity="0.72" /><stop offset="100%" stop-color="#ffffff" stop-opacity="0" /></radialGradient></defs><rect width="1200" height="760" rx="36" fill="url(#bg)" /><rect width="1200" height="760" rx="36" fill="url(#mist)" /><rect x="14" y="14" width="1172" height="732" rx="28" fill="none" stroke="#504433" stroke-opacity="0.18" stroke-width="4" /><g transform="translate(19 -10)"><circle cx="389" cy="413" r="6" fill="#a48458" opacity="0.12" /><circle cx="379" cy="195" r="11" fill="#a48458" opacity="0.28" /><circle cx="108" cy="369" r="6" fill="#a48458" opacity="0.26" /><circle cx="335" cy="107" r="10" fill="#a48458" opacity="0.14" /><circle cx="422" cy="407" r="9" fill="#a48458" opacity="0.12" /><circle cx="459" cy="136" r="11" fill="#a48458" opacity="0.14" /><circle cx="1048" cy="81" r="5" fill="#a48458" opacity="0.28" /><circle cx="607" cy="70" r="10" fill="#a48458" opacity="0.13" /><g transform="translate(600 258)"><circle cx="0" cy="0" r="170" fill="#d8c2a2" opacity="0.35" /><circle cx="0" cy="0" r="150" stroke="#504433" stroke-width="8" stroke-linecap="round" stroke-linejoin="round" fill="none" opacity="0.28" /><path d="M-112 -66 L-42 -86 L12 -40 L82 -64 L118 -18 L74 34 L118 78 L44 102 L-16 58 L-76 88 L-122 36 L-78 -10 Z" fill="#a48458" opacity="0.62" /><polyline points="-94 -26 -48 -12 -8 -40 30 -8 76 -18" stroke="#504433" stroke-width="8" stroke-linecap="round" stroke-linejoin="round" fill="none" /><polyline points="-86 30 -40 44 0 18 38 46 86 36" stroke="#504433" stroke-width="8" stroke-linecap="round" stroke-linejoin="round" fill="none" /></g><ellipse cx="600" cy="640" rx="338" ry="88" fill="#d8ccb8" opacity="0.58" /><g transform="translate(0 6)"><ellipse cx="550" cy="528" rx="238" ry="150" fill="#b69772" opacity="0.96" /><ellipse cx="794" cy="510" rx="150" ry="118" fill="#b69772" opacity="0.98" /><ellipse cx="866" cy="426" rx="45" ry="56" fill="#d9bf9c" opacity="0.95" /><ellipse cx="792" cy="412" rx="38" ry="48" fill="#d9bf9c" opacity="0.95" /><circle cx="830" cy="512" r="10" fill="#504433" /><circle cx="876" cy="544" r="8" fill="#7a664d" /><path d="M882 544 C912 536 934 526 954 510" stroke="#504433" stroke-width="7" stroke-linecap="round" fill="none" opacity="0.75" /><path d="M882 552 C914 552 934 560 954 574" stroke="#504433" stroke-width="7" stroke-linecap="round" fill="none" opacity="0.75" /><path d="M882 560 C914 570 934 592 952 612" stroke="#504433" stroke-width="7" stroke-linecap="round" fill="none" opacity="0.75" /><ellipse cx="702" cy="654" rx="64" ry="28" fill="#d9bf9c" opacity="0.62" /><ellipse cx="548" cy="656" rx="64" ry="28" fill="#d9bf9c" opacity="0.62" /></g></g></svg>