<?xml version="1.0" encoding="UTF-8"?><svg xmlns="http://www.w3.org/2000/svg" width="1200" height="760" viewBox="0 0 1200 760" role="img" aria-labelledby="title desc"><title id="title">Paws &amp; Pause</title><desc id="desc">Illustration for Paws &amp; Pause</desc><defs><linearGradient id="bg" x1="0%" y1="0%" x2="100%" y2="100%"><stop offset="0%" stop-color="#fbeef0" /><stop offset="100%" stop-color="#f0d2d9" /></linearGradient><radialGradient id="mist" cx="20%" cy="0%" r="70%"><stop offset="0%" stop-color="#e7b5c4" stop-opacity="0.72" /><stop offset="100%" stop-color="#ffffff" stop-opacity="0" /></radialGradient></defs><rect width="1200" height="760" rx="36" fill="url(#bg)" /><rect width="1200" height="760" rx="36" fill="url(#mist)" /><rect x="14" y="14" width="1172" height="732" rx="28" fill="none" stroke="#5a3641" stroke-opacity="0.18" stroke-width="4" /><g transform="translate(-15 -11)"><circle cx="915" cy="223" r="6" fill="#b86a80" opacity="0.27" /><circle cx="470" cy="385" r="14" fill="#b86a80" opacity="0.27" /><circle cx="1092" cy="155" r="10" fill="#b86a80" opacity="0.25" /><circle cx="155" cy="368" r="12" fill="#b86a80" opacity="0.14" /><circle cx="954" cy="119" r="6" fill="#b86a80" opacity="0.26" /><circle cx="155" cy="226" r="5" fill="#b86a80" opacity="0.28" /><circle cx="202" cy="187" r="9" fill="#b86a80" opacity="0.30" /><circle cx="129" cy="70" r="5" fill="#b86a80" opacity="0.21" /><g transform="translate(600 258)"><circle cx="0" cy="0" r="170" fill="#e7b5c4" opacity="0.35" /><circle cx="0" cy="0" r="150" stroke="#5a3641" stroke-width="8" stroke-linecap="round" stroke-linejoin="round" fill="none" opacity="0.28" /><ellipse cx="-42" cy="20" rx="42" ry="34" fill="#b86a80" opacity="0.72" /><circle cx="-76" cy="-18" r="13" fill="#b86a80" opacity="0.86" /><circle cx="-42" cy="-30" r="13" fill="#b86a80" opacity="0.86" /><circle cx="-8" cy="-18" r="13" fill="#b86a80" opacity="0.86" /><rect x="38" y="-38" width="24" height="86" rx="10" fill="#5a3641" opacity="0.86" /><rect x="78" y="-38" width="24" height="86" rx="10" fill="#5a3641" opacity="0.86" /></g><ellipse cx="600" cy="640" rx="338" ry="88" fill="#e5c0cb" opacity="0.58" /><g transform="translate(0 7)"><ellipse cx="550" cy="528" rx="238" ry="150" fill="#c88ca0" opacity="0.96" /><ellipse cx="794" cy="510" rx="150" ry="118" fill="#c88ca0" opacity="0.98" /><ellipse cx="866" cy="425" rx="45" ry="56" fill="#e7b9c7" opacity="0.95" /><ellipse cx="792" cy="413" rx="38" ry="48" fill="#e7b9c7" opacity="0.95" /><circle cx="835" cy="512" r="10" fill="#5a3641" /><circle cx="876" cy="544" r="8" fill="#8e5264" /><path d="M882 544 C912 536 934 526 954 510" stroke="#5a3641" stroke-width="7" stroke-linecap="round" fill="none" opacity="0.75" /><path d="M882 552 C914 552 934 560 954 574" stroke="#5a3641" stroke-width="7" stroke-linecap="round" fill="none" opacity="0.75" /><path d="M882 560 C914 570 934 592 952 612" stroke="#5a3641" stroke-width="7" stroke-linecap="round" fill="none" opacity="0.75" /><ellipse cx="702" cy="654" rx="64" ry="28" fill="#e7b9c7" opacity="0.62" /><ellipse cx="548" cy="656" rx="64" ry="28" fill="#e7b9c7" opacity="0.62" /></g></g></svg>