<?xml version="1.0" encoding="UTF-8"?><svg xmlns="http://www.w3.org/2000/svg" width="1200" height="760" viewBox="0 0 1200 760" role="img" aria-labelledby="title desc"><title id="title">Pea Flake Pact</title><desc id="desc">Illustration for Pea Flake Pact</desc><defs><linearGradient id="bg" x1="0%" y1="0%" x2="100%" y2="100%"><stop offset="0%" stop-color="#fbf1e8" /><stop offset="100%" stop-color="#edd6c3" /></linearGradient><radialGradient id="mist" cx="20%" cy="0%" r="70%"><stop offset="0%" stop-color="#efc59f" stop-opacity="0.72" /><stop offset="100%" stop-color="#ffffff" stop-opacity="0" /></radialGradient></defs><rect width="1200" height="760" rx="36" fill="url(#bg)" /><rect width="1200" height="760" rx="36" fill="url(#mist)" /><rect x="14" y="14" width="1172" height="732" rx="28" fill="none" stroke="#584133" stroke-opacity="0.18" stroke-width="4" /><g transform="translate(8 -10)"><circle cx="122" cy="160" r="11" fill="#c47f4e" opacity="0.24" /><circle cx="432" cy="177" r="11" fill="#c47f4e" opacity="0.16" /><circle cx="830" cy="283" r="11" fill="#c47f4e" opacity="0.21" /><circle cx="767" cy="71" r="7" fill="#c47f4e" opacity="0.22" /><circle cx="934" cy="76" r="5" fill="#c47f4e" opacity="0.20" /><circle cx="403" cy="242" r="10" fill="#c47f4e" opacity="0.21" /><circle cx="365" cy="190" r="9" fill="#c47f4e" opacity="0.31" /><circle cx="572" cy="70" r="12" fill="#c47f4e" opacity="0.15" /><g transform="translate(600 258)"><circle cx="0" cy="0" r="170" fill="#efc59f" opacity="0.35" /><circle cx="0" cy="0" r="150" stroke="#584133" stroke-width="8" stroke-linecap="round" stroke-linejoin="round" fill="none" opacity="0.28" /><path d="M-84 20 Q-22 -94 0 0 Q-38 30 -84 20 Z" fill="#c47f4e" opacity="0.78" /><path d="M84 20 Q22 -94 0 0 Q38 30 84 20 Z" fill="#c47f4e" opacity="0.78" /><line x1="-70" y1="18" x2="-10" y2="-38" stroke="#584133" stroke-width="8" stroke-linecap="round" stroke-linejoin="round" fill="none" /><line x1="70" y1="18" x2="10" y2="-38" stroke="#584133" stroke-width="8" stroke-linecap="round" stroke-linejoin="round" fill="none" /></g><ellipse cx="600" cy="640" rx="338" ry="88" fill="#dfc3a8" opacity="0.58" /><g transform="translate(0 6)"><ellipse cx="550" cy="528" rx="238" ry="150" fill="#c08e67" opacity="0.96" /><ellipse cx="794" cy="510" rx="150" ry="118" fill="#c08e67" opacity="0.98" /><ellipse cx="866" cy="421" rx="45" ry="56" fill="#e2b995" opacity="0.95" /><ellipse cx="792" cy="417" rx="38" ry="48" fill="#e2b995" opacity="0.95" /><circle cx="824" cy="512" r="10" fill="#584133" /><circle cx="876" cy="544" r="8" fill="#865846" /><path d="M882 544 C912 536 934 526 954 510" stroke="#584133" stroke-width="7" stroke-linecap="round" fill="none" opacity="0.75" /><path d="M882 552 C914 552 934 560 954 574" stroke="#584133" stroke-width="7" stroke-linecap="round" fill="none" opacity="0.75" /><path d="M882 560 C914 570 934 592 952 612" stroke="#584133" stroke-width="7" stroke-linecap="round" fill="none" opacity="0.75" /><ellipse cx="702" cy="654" rx="64" ry="28" fill="#e2b995" opacity="0.62" /><ellipse cx="548" cy="656" rx="64" ry="28" fill="#e2b995" opacity="0.62" /></g></g></svg>