<svg xmlns="http://www.w3.org/2000/svg" viewBox="0 0 600 800">
  <defs>
    <linearGradient id="paper" x1="0" x2="1" y1="0" y2="1">
      <stop offset="0%" stop-color="#f8ead7" />
      <stop offset="100%" stop-color="#edd7bd" />
    </linearGradient>
    <linearGradient id="wash" x1="0" x2="0" y1="0" y2="1">
      <stop offset="0%" stop-color="#e2c5a6" stop-opacity="0.7" />
      <stop offset="100%" stop-color="#d5b898" stop-opacity="0.5" />
    </linearGradient>
  </defs>
  <rect width="600" height="800" rx="32" fill="url(#paper)" />
  <path
    d="M120 210 C210 120, 420 120, 500 220 C560 300, 520 430, 440 470 C410 486, 382 520, 360 560 C330 612, 260 638, 200 610 C140 582, 110 520, 120 460 C130 390, 80 310, 120 210 Z"
    fill="url(#wash)"
  />
  <path
    d="M220 300 C250 250, 330 250, 360 300 C395 355, 385 460, 330 500 C300 520, 260 520, 230 500 C175 460, 165 355, 220 300 Z"
    fill="#f3e4cf"
  />
  <ellipse cx="250" cy="325" rx="36" ry="50" fill="#d9c0a5" />
  <ellipse cx="340" cy="325" rx="36" ry="50" fill="#d9c0a5" />
  <ellipse cx="210" cy="270" rx="30" ry="46" fill="#e5cdb3" />
  <ellipse cx="390" cy="270" rx="30" ry="46" fill="#e5cdb3" />
  <ellipse cx="230" cy="420" rx="18" ry="24" fill="#d0b79e" />
  <ellipse cx="330" cy="420" rx="18" ry="24" fill="#d0b79e" />
  <circle cx="240" cy="360" r="6" fill="#6b4c3b" />
  <circle cx="320" cy="360" r="6" fill="#6b4c3b" />
  <path d="M270 385 Q300 400 330 385" stroke="#6b4c3b" stroke-width="6" fill="none" />
  <path d="M150 620 C220 660, 380 660, 450 620" stroke="#c7a885" stroke-width="10" fill="none" />
  <text x="300" y="700" text-anchor="middle" font-family="Fraunces, serif" font-size="32" fill="#8b6244">
    Watercolor Placeholder
  </text>
</svg>
