<?xml version="1.0" encoding="UTF-8"?><svg xmlns="http://www.w3.org/2000/svg" width="1200" height="760" viewBox="0 0 1200 760" role="img" aria-labelledby="title desc"><title id="title">Popcorning</title><desc id="desc">Illustration for Popcorning</desc><defs><linearGradient id="bg" x1="0%" y1="0%" x2="100%" y2="100%"><stop offset="0%" stop-color="#f7eddc" /><stop offset="100%" stop-color="#e7d4b5" /></linearGradient><radialGradient id="mist" cx="20%" cy="0%" r="70%"><stop offset="0%" stop-color="#f2c7a2" stop-opacity="0.72" /><stop offset="100%" stop-color="#ffffff" stop-opacity="0" /></radialGradient></defs><rect width="1200" height="760" rx="36" fill="url(#bg)" /><rect width="1200" height="760" rx="36" fill="url(#mist)" /><rect x="14" y="14" width="1172" height="732" rx="28" fill="none" stroke="#4f3a2a" stroke-opacity="0.18" stroke-width="4" /><g transform="translate(17 -10)"><circle cx="105" cy="146" r="8" fill="#c78554" opacity="0.24" /><circle cx="714" cy="385" r="14" fill="#c78554" opacity="0.13" /><circle cx="161" cy="154" r="6" fill="#c78554" opacity="0.18" /><circle cx="611" cy="159" r="9" fill="#c78554" opacity="0.32" /><circle cx="1043" cy="325" r="6" fill="#c78554" opacity="0.31" /><circle cx="804" cy="222" r="5" fill="#c78554" opacity="0.18" /><circle cx="767" cy="97" r="12" fill="#c78554" opacity="0.15" /><circle cx="557" cy="70" r="11" fill="#c78554" opacity="0.22" /><g transform="translate(600 258)"><circle cx="0" cy="0" r="170" fill="#f2c7a2" opacity="0.35" /><circle cx="0" cy="0" r="150" stroke="#4f3a2a" stroke-width="8" stroke-linecap="round" stroke-linejoin="round" fill="none" opacity="0.28" /><circle cx="0" cy="0" r="38" fill="#c78554" opacity="0.82" /><line x1="-110" y1="0" x2="-62" y2="0" stroke="#4f3a2a" stroke-width="12" stroke-linecap="round" stroke-linejoin="round" fill="none" /><line x1="110" y1="0" x2="62" y2="0" stroke="#4f3a2a" stroke-width="12" stroke-linecap="round" stroke-linejoin="round" fill="none" /><line x1="0" y1="-110" x2="0" y2="-62" stroke="#4f3a2a" stroke-width="12" stroke-linecap="round" stroke-linejoin="round" fill="none" /><line x1="0" y1="110" x2="0" y2="62" stroke="#4f3a2a" stroke-width="12" stroke-linecap="round" stroke-linejoin="round" fill="none" /><line x1="-80" y1="-80" x2="-48" y2="-48" stroke="#4f3a2a" stroke-width="8" stroke-linecap="round" stroke-linejoin="round" fill="none" /><line x1="80" y1="-80" x2="48" y2="-48" stroke="#4f3a2a" stroke-width="8" stroke-linecap="round" stroke-linejoin="round" fill="none" /><line x1="-80" y1="80" x2="-48" y2="48" stroke="#4f3a2a" stroke-width="8" stroke-linecap="round" stroke-linejoin="round" fill="none" /><line x1="80" y1="80" x2="48" y2="48" stroke="#4f3a2a" stroke-width="8" stroke-linecap="round" stroke-linejoin="round" fill="none" /></g><ellipse cx="600" cy="640" rx="338" ry="88" fill="#d7c0a1" opacity="0.58" /><g transform="translate(0 -8)"><ellipse cx="550" cy="528" rx="238" ry="150" fill="#b9845f" opacity="0.96" /><ellipse cx="794" cy="510" rx="150" ry="118" fill="#b9845f" opacity="0.98" /><ellipse cx="866" cy="418" rx="45" ry="56" fill="#dbac89" opacity="0.95" /><ellipse cx="792" cy="420" rx="38" ry="48" fill="#dbac89" opacity="0.95" /><circle cx="830" cy="512" r="10" fill="#4f3a2a" /><circle cx="876" cy="544" r="8" fill="#7a4e43" /><path d="M882 544 C912 536 934 526 954 510" stroke="#4f3a2a" stroke-width="7" stroke-linecap="round" fill="none" opacity="0.75" /><path d="M882 552 C914 552 934 560 954 574" stroke="#4f3a2a" stroke-width="7" stroke-linecap="round" fill="none" opacity="0.75" /><path d="M882 560 C914 570 934 592 952 612" stroke="#4f3a2a" stroke-width="7" stroke-linecap="round" fill="none" opacity="0.75" /><ellipse cx="702" cy="654" rx="64" ry="28" fill="#dbac89" opacity="0.62" /><ellipse cx="548" cy="656" rx="64" ry="28" fill="#dbac89" opacity="0.62" /></g></g></svg>