<?xml version="1.0" encoding="UTF-8"?><svg xmlns="http://www.w3.org/2000/svg" width="1200" height="760" viewBox="0 0 1200 760" role="img" aria-labelledby="title desc"><title id="title">Quiet Corner</title><desc id="desc">Illustration for Quiet Corner</desc><defs><linearGradient id="bg" x1="0%" y1="0%" x2="100%" y2="100%"><stop offset="0%" stop-color="#eef8f6" /><stop offset="100%" stop-color="#cfe7df" /></linearGradient><radialGradient id="mist" cx="20%" cy="0%" r="70%"><stop offset="0%" stop-color="#a8d9d0" stop-opacity="0.72" /><stop offset="100%" stop-color="#ffffff" stop-opacity="0" /></radialGradient></defs><rect width="1200" height="760" rx="36" fill="url(#bg)" /><rect width="1200" height="760" rx="36" fill="url(#mist)" /><rect x="14" y="14" width="1172" height="732" rx="28" fill="none" stroke="#2d4f4b" stroke-opacity="0.18" stroke-width="4" /><g transform="translate(17 -11)"><circle cx="962" cy="344" r="11" fill="#4f9f90" opacity="0.12" /><circle cx="243" cy="304" r="12" fill="#4f9f90" opacity="0.28" /><circle cx="1036" cy="369" r="13" fill="#4f9f90" opacity="0.26" /><circle cx="108" cy="319" r="12" fill="#4f9f90" opacity="0.15" /><circle cx="365" cy="404" r="10" fill="#4f9f90" opacity="0.25" /><circle cx="751" cy="118" r="12" fill="#4f9f90" opacity="0.12" /><circle cx="132" cy="155" r="9" fill="#4f9f90" opacity="0.16" /><circle cx="983" cy="70" r="11" fill="#4f9f90" opacity="0.19" /><g transform="translate(600 258)"><circle cx="0" cy="0" r="170" fill="#a8d9d0" opacity="0.35" /><circle cx="0" cy="0" r="150" stroke="#2d4f4b" stroke-width="8" stroke-linecap="round" stroke-linejoin="round" fill="none" opacity="0.28" /><path d="M-110 -86 H10 V-44 H-62 V98 H-110 Z" fill="#4f9f90" opacity="0.68" /><circle cx="50" cy="10" r="42" fill="#a8d9d0" opacity="0.84" /><circle cx="50" cy="10" r="10" fill="#2d4f4b" /></g><ellipse cx="600" cy="640" rx="338" ry="88" fill="#bad8d0" opacity="0.58" /><g transform="translate(0 4)"><ellipse cx="550" cy="528" rx="238" ry="150" fill="#6fae9f" opacity="0.96" /><ellipse cx="794" cy="510" rx="150" ry="118" fill="#6fae9f" opacity="0.98" /><ellipse cx="866" cy="426" rx="45" ry="56" fill="#abd3cb" opacity="0.95" /><ellipse cx="792" cy="412" rx="38" ry="48" fill="#abd3cb" opacity="0.95" /><circle cx="832" cy="512" r="10" fill="#2d4f4b" /><circle cx="876" cy="544" r="8" fill="#44746d" /><path d="M882 544 C912 536 934 526 954 510" stroke="#2d4f4b" stroke-width="7" stroke-linecap="round" fill="none" opacity="0.75" /><path d="M882 552 C914 552 934 560 954 574" stroke="#2d4f4b" stroke-width="7" stroke-linecap="round" fill="none" opacity="0.75" /><path d="M882 560 C914 570 934 592 952 612" stroke="#2d4f4b" stroke-width="7" stroke-linecap="round" fill="none" opacity="0.75" /><ellipse cx="702" cy="654" rx="64" ry="28" fill="#abd3cb" opacity="0.62" /><ellipse cx="548" cy="656" rx="64" ry="28" fill="#abd3cb" opacity="0.62" /></g></g></svg>