<?xml version="1.0" encoding="UTF-8"?><svg xmlns="http://www.w3.org/2000/svg" width="1200" height="760" viewBox="0 0 1200 760" role="img" aria-labelledby="title desc"><title id="title">Saint Whisker</title><desc id="desc">Illustration for Saint Whisker</desc><defs><linearGradient id="bg" x1="0%" y1="0%" x2="100%" y2="100%"><stop offset="0%" stop-color="#eef5fb" /><stop offset="100%" stop-color="#d0e0ef" /></linearGradient><radialGradient id="mist" cx="20%" cy="0%" r="70%"><stop offset="0%" stop-color="#b8d1e6" stop-opacity="0.72" /><stop offset="100%" stop-color="#ffffff" stop-opacity="0" /></radialGradient></defs><rect width="1200" height="760" rx="36" fill="url(#bg)" /><rect width="1200" height="760" rx="36" fill="url(#mist)" /><rect x="14" y="14" width="1172" height="732" rx="28" fill="none" stroke="#2d455c" stroke-opacity="0.18" stroke-width="4" /><g transform="translate(-24 6)"><circle cx="521" cy="266" r="8" fill="#5f8fb8" opacity="0.19" /><circle cx="362" cy="114" r="11" fill="#5f8fb8" opacity="0.15" /><circle cx="226" cy="157" r="11" fill="#5f8fb8" opacity="0.24" /><circle cx="722" cy="401" r="10" fill="#5f8fb8" opacity="0.12" /><circle cx="710" cy="379" r="14" fill="#5f8fb8" opacity="0.20" /><circle cx="135" cy="212" r="7" fill="#5f8fb8" opacity="0.25" /><circle cx="699" cy="117" r="7" fill="#5f8fb8" opacity="0.26" /><circle cx="184" cy="70" r="13" fill="#5f8fb8" opacity="0.24" /><g transform="translate(600 258)"><circle cx="0" cy="0" r="170" fill="#b8d1e6" opacity="0.35" /><circle cx="0" cy="0" r="150" stroke="#2d455c" stroke-width="8" stroke-linecap="round" stroke-linejoin="round" fill="none" opacity="0.28" /><ellipse cx="0" cy="-54" rx="82" ry="24" fill="#b8d1e6" opacity="0.95" /><ellipse cx="0" cy="-54" rx="82" ry="24" stroke="#2d455c" stroke-width="8" stroke-linecap="round" stroke-linejoin="round" fill="none" /><circle cx="0" cy="20" r="54" fill="#5f8fb8" opacity="0.72" /><line x1="0" y1="-122" x2="0" y2="-90" stroke="#2d455c" stroke-width="8" stroke-linecap="round" stroke-linejoin="round" fill="none" /></g><ellipse cx="600" cy="640" rx="338" ry="88" fill="#c4d7e6" opacity="0.58" /><g transform="translate(0 -1)"><ellipse cx="550" cy="528" rx="238" ry="150" fill="#86a6bf" opacity="0.96" /><ellipse cx="794" cy="510" rx="150" ry="118" fill="#86a6bf" opacity="0.98" /><ellipse cx="866" cy="424" rx="45" ry="56" fill="#bdd3e4" opacity="0.95" /><ellipse cx="792" cy="414" rx="38" ry="48" fill="#bdd3e4" opacity="0.95" /><circle cx="829" cy="512" r="10" fill="#2d455c" /><circle cx="876" cy="544" r="8" fill="#4b6982" /><path d="M882 544 C912 536 934 526 954 510" stroke="#2d455c" stroke-width="7" stroke-linecap="round" fill="none" opacity="0.75" /><path d="M882 552 C914 552 934 560 954 574" stroke="#2d455c" stroke-width="7" stroke-linecap="round" fill="none" opacity="0.75" /><path d="M882 560 C914 570 934 592 952 612" stroke="#2d455c" stroke-width="7" stroke-linecap="round" fill="none" opacity="0.75" /><ellipse cx="702" cy="654" rx="64" ry="28" fill="#bdd3e4" opacity="0.62" /><ellipse cx="548" cy="656" rx="64" ry="28" fill="#bdd3e4" opacity="0.62" /></g></g></svg>