<?xml version="1.0" encoding="UTF-8"?><svg xmlns="http://www.w3.org/2000/svg" width="1200" height="760" viewBox="0 0 1200 760" role="img" aria-labelledby="title desc"><title id="title">Snack Alarm</title><desc id="desc">Illustration for Snack Alarm</desc><defs><linearGradient id="bg" x1="0%" y1="0%" x2="100%" y2="100%"><stop offset="0%" stop-color="#eef5fb" /><stop offset="100%" stop-color="#d0e0ef" /></linearGradient><radialGradient id="mist" cx="20%" cy="0%" r="70%"><stop offset="0%" stop-color="#b8d1e6" stop-opacity="0.72" /><stop offset="100%" stop-color="#ffffff" stop-opacity="0" /></radialGradient></defs><rect width="1200" height="760" rx="36" fill="url(#bg)" /><rect width="1200" height="760" rx="36" fill="url(#mist)" /><rect x="14" y="14" width="1172" height="732" rx="28" fill="none" stroke="#2d455c" stroke-opacity="0.18" stroke-width="4" /><g transform="translate(-23 3)"><circle cx="968" cy="146" r="10" fill="#5f8fb8" opacity="0.32" /><circle cx="691" cy="179" r="7" fill="#5f8fb8" opacity="0.18" /><circle cx="734" cy="173" r="8" fill="#5f8fb8" opacity="0.13" /><circle cx="905" cy="275" r="11" fill="#5f8fb8" opacity="0.29" /><circle cx="718" cy="370" r="8" fill="#5f8fb8" opacity="0.14" /><circle cx="481" cy="247" r="11" fill="#5f8fb8" opacity="0.20" /><circle cx="720" cy="156" r="10" fill="#5f8fb8" opacity="0.32" /><circle cx="189" cy="70" r="8" fill="#5f8fb8" opacity="0.32" /><g transform="translate(600 258)"><circle cx="0" cy="0" r="170" fill="#b8d1e6" opacity="0.35" /><circle cx="0" cy="0" r="150" stroke="#2d455c" stroke-width="8" stroke-linecap="round" stroke-linejoin="round" fill="none" opacity="0.28" /><path d="M-78 40 Q-78 -74 0 -84 Q78 -74 78 40 Z" fill="#5f8fb8" opacity="0.68" /><path d="M-96 40 H96" stroke="#2d455c" stroke-width="12" stroke-linecap="round" stroke-linejoin="round" fill="none" /><circle cx="0" cy="58" r="12" fill="#2d455c" /><path d="M-78 40 Q-78 -74 0 -84 Q78 -74 78 40" stroke="#2d455c" stroke-width="12" stroke-linecap="round" stroke-linejoin="round" fill="none" /></g><ellipse cx="600" cy="640" rx="338" ry="88" fill="#c4d7e6" opacity="0.58" /><g transform="translate(0 7)"><ellipse cx="550" cy="528" rx="238" ry="150" fill="#86a6bf" opacity="0.96" /><ellipse cx="794" cy="510" rx="150" ry="118" fill="#86a6bf" opacity="0.98" /><ellipse cx="866" cy="413" rx="45" ry="56" fill="#bdd3e4" opacity="0.95" /><ellipse cx="792" cy="425" rx="38" ry="48" fill="#bdd3e4" opacity="0.95" /><circle cx="824" cy="512" r="10" fill="#2d455c" /><circle cx="876" cy="544" r="8" fill="#4b6982" /><path d="M882 544 C912 536 934 526 954 510" stroke="#2d455c" stroke-width="7" stroke-linecap="round" fill="none" opacity="0.75" /><path d="M882 552 C914 552 934 560 954 574" stroke="#2d455c" stroke-width="7" stroke-linecap="round" fill="none" opacity="0.75" /><path d="M882 560 C914 570 934 592 952 612" stroke="#2d455c" stroke-width="7" stroke-linecap="round" fill="none" opacity="0.75" /><ellipse cx="702" cy="654" rx="64" ry="28" fill="#bdd3e4" opacity="0.62" /><ellipse cx="548" cy="656" rx="64" ry="28" fill="#bdd3e4" opacity="0.62" /></g></g></svg>