<?xml version="1.0" encoding="UTF-8"?><svg xmlns="http://www.w3.org/2000/svg" width="1200" height="760" viewBox="0 0 1200 760" role="img" aria-labelledby="title desc"><title id="title">Sprig of Mint</title><desc id="desc">Illustration for Sprig of Mint</desc><defs><linearGradient id="bg" x1="0%" y1="0%" x2="100%" y2="100%"><stop offset="0%" stop-color="#fbf1e8" /><stop offset="100%" stop-color="#edd6c3" /></linearGradient><radialGradient id="mist" cx="20%" cy="0%" r="70%"><stop offset="0%" stop-color="#efc59f" stop-opacity="0.72" /><stop offset="100%" stop-color="#ffffff" stop-opacity="0" /></radialGradient></defs><rect width="1200" height="760" rx="36" fill="url(#bg)" /><rect width="1200" height="760" rx="36" fill="url(#mist)" /><rect x="14" y="14" width="1172" height="732" rx="28" fill="none" stroke="#584133" stroke-opacity="0.18" stroke-width="4" /><g transform="translate(17 2)"><circle cx="552" cy="83" r="11" fill="#c47f4e" opacity="0.24" /><circle cx="939" cy="148" r="14" fill="#c47f4e" opacity="0.14" /><circle cx="755" cy="310" r="13" fill="#c47f4e" opacity="0.27" /><circle cx="644" cy="241" r="12" fill="#c47f4e" opacity="0.18" /><circle cx="972" cy="293" r="7" fill="#c47f4e" opacity="0.23" /><circle cx="141" cy="264" r="10" fill="#c47f4e" opacity="0.15" /><circle cx="654" cy="95" r="9" fill="#c47f4e" opacity="0.19" /><circle cx="392" cy="70" r="9" fill="#c47f4e" opacity="0.23" /><g transform="translate(600 258)"><circle cx="0" cy="0" r="170" fill="#efc59f" opacity="0.35" /><circle cx="0" cy="0" r="150" stroke="#584133" stroke-width="8" stroke-linecap="round" stroke-linejoin="round" fill="none" opacity="0.28" /><line x1="0" y1="90" x2="0" y2="-78" stroke="#584133" stroke-width="12" stroke-linecap="round" stroke-linejoin="round" fill="none" /><path d="M0 -22 Q-88 -58 -96 8 Q-42 22 0 -22 Z" fill="#c47f4e" opacity="0.74" /><path d="M0 -42 Q88 -78 96 -12 Q42 2 0 -42 Z" fill="#c47f4e" opacity="0.74" /><path d="M0 24 Q-64 0 -78 44 Q-38 58 0 24 Z" fill="#efc59f" opacity="0.9" /><path d="M0 8 Q64 -16 78 26 Q38 40 0 8 Z" fill="#efc59f" opacity="0.9" /></g><ellipse cx="600" cy="640" rx="338" ry="88" fill="#dfc3a8" opacity="0.58" /><g transform="translate(0 12)"><ellipse cx="550" cy="528" rx="238" ry="150" fill="#c08e67" opacity="0.96" /><ellipse cx="794" cy="510" rx="150" ry="118" fill="#c08e67" opacity="0.98" /><ellipse cx="866" cy="427" rx="45" ry="56" fill="#e2b995" opacity="0.95" /><ellipse cx="792" cy="411" rx="38" ry="48" fill="#e2b995" opacity="0.95" /><circle cx="834" cy="512" r="10" fill="#584133" /><circle cx="876" cy="544" r="8" fill="#865846" /><path d="M882 544 C912 536 934 526 954 510" stroke="#584133" stroke-width="7" stroke-linecap="round" fill="none" opacity="0.75" /><path d="M882 552 C914 552 934 560 954 574" stroke="#584133" stroke-width="7" stroke-linecap="round" fill="none" opacity="0.75" /><path d="M882 560 C914 570 934 592 952 612" stroke="#584133" stroke-width="7" stroke-linecap="round" fill="none" opacity="0.75" /><ellipse cx="702" cy="654" rx="64" ry="28" fill="#e2b995" opacity="0.62" /><ellipse cx="548" cy="656" rx="64" ry="28" fill="#e2b995" opacity="0.62" /></g></g></svg>