<?xml version="1.0" encoding="UTF-8"?><svg xmlns="http://www.w3.org/2000/svg" width="1200" height="760" viewBox="0 0 1200 760" role="img" aria-labelledby="title desc"><title id="title">Squeak of Truth</title><desc id="desc">Illustration for Squeak of Truth</desc><defs><linearGradient id="bg" x1="0%" y1="0%" x2="100%" y2="100%"><stop offset="0%" stop-color="#fbeef0" /><stop offset="100%" stop-color="#f0d2d9" /></linearGradient><radialGradient id="mist" cx="20%" cy="0%" r="70%"><stop offset="0%" stop-color="#e7b5c4" stop-opacity="0.72" /><stop offset="100%" stop-color="#ffffff" stop-opacity="0" /></radialGradient></defs><rect width="1200" height="760" rx="36" fill="url(#bg)" /><rect width="1200" height="760" rx="36" fill="url(#mist)" /><rect x="14" y="14" width="1172" height="732" rx="28" fill="none" stroke="#5a3641" stroke-opacity="0.18" stroke-width="4" /><g transform="translate(-18 20)"><circle cx="204" cy="367" r="13" fill="#b86a80" opacity="0.12" /><circle cx="654" cy="249" r="7" fill="#b86a80" opacity="0.15" /><circle cx="1067" cy="109" r="9" fill="#b86a80" opacity="0.15" /><circle cx="1036" cy="314" r="9" fill="#b86a80" opacity="0.19" /><circle cx="771" cy="190" r="11" fill="#b86a80" opacity="0.18" /><circle cx="1070" cy="84" r="12" fill="#b86a80" opacity="0.19" /><circle cx="991" cy="86" r="9" fill="#b86a80" opacity="0.32" /><circle cx="207" cy="70" r="10" fill="#b86a80" opacity="0.22" /><g transform="translate(600 258)"><circle cx="0" cy="0" r="170" fill="#e7b5c4" opacity="0.35" /><circle cx="0" cy="0" r="150" stroke="#5a3641" stroke-width="8" stroke-linecap="round" stroke-linejoin="round" fill="none" opacity="0.28" /><line x1="-110" y1="0" x2="-62" y2="0" stroke="#5a3641" stroke-width="8" stroke-linecap="round" stroke-linejoin="round" fill="none" /><path d="M-60 0 Q-24 -48 12 0 Q48 48 84 0" stroke="#5a3641" stroke-width="12" stroke-linecap="round" stroke-linejoin="round" fill="none" /><path d="M-60 24 Q-24 -24 12 24 Q48 72 84 24" stroke="#5a3641" stroke-width="8" stroke-linecap="round" stroke-linejoin="round" fill="none" /><path d="M-60 -24 Q-24 -72 12 -24 Q48 24 84 -24" stroke="#5a3641" stroke-width="8" stroke-linecap="round" stroke-linejoin="round" fill="none" /></g><ellipse cx="600" cy="640" rx="338" ry="88" fill="#e5c0cb" opacity="0.58" /><g transform="translate(0 12)"><ellipse cx="550" cy="528" rx="238" ry="150" fill="#c88ca0" opacity="0.96" /><ellipse cx="794" cy="510" rx="150" ry="118" fill="#c88ca0" opacity="0.98" /><ellipse cx="866" cy="415" rx="45" ry="56" fill="#e7b9c7" opacity="0.95" /><ellipse cx="792" cy="423" rx="38" ry="48" fill="#e7b9c7" opacity="0.95" /><circle cx="832" cy="512" r="10" fill="#5a3641" /><circle cx="876" cy="544" r="8" fill="#8e5264" /><path d="M882 544 C912 536 934 526 954 510" stroke="#5a3641" stroke-width="7" stroke-linecap="round" fill="none" opacity="0.75" /><path d="M882 552 C914 552 934 560 954 574" stroke="#5a3641" stroke-width="7" stroke-linecap="round" fill="none" opacity="0.75" /><path d="M882 560 C914 570 934 592 952 612" stroke="#5a3641" stroke-width="7" stroke-linecap="round" fill="none" opacity="0.75" /><ellipse cx="702" cy="654" rx="64" ry="28" fill="#e7b9c7" opacity="0.62" /><ellipse cx="548" cy="656" rx="64" ry="28" fill="#e7b9c7" opacity="0.62" /></g></g></svg>