<?xml version="1.0" encoding="UTF-8"?><svg xmlns="http://www.w3.org/2000/svg" width="1200" height="760" viewBox="0 0 1200 760" role="img" aria-labelledby="title desc"><title id="title">The Long Stretch</title><desc id="desc">Illustration for The Long Stretch</desc><defs><linearGradient id="bg" x1="0%" y1="0%" x2="100%" y2="100%"><stop offset="0%" stop-color="#eef5fb" /><stop offset="100%" stop-color="#d0e0ef" /></linearGradient><radialGradient id="mist" cx="20%" cy="0%" r="70%"><stop offset="0%" stop-color="#b8d1e6" stop-opacity="0.72" /><stop offset="100%" stop-color="#ffffff" stop-opacity="0" /></radialGradient></defs><rect width="1200" height="760" rx="36" fill="url(#bg)" /><rect width="1200" height="760" rx="36" fill="url(#mist)" /><rect x="14" y="14" width="1172" height="732" rx="28" fill="none" stroke="#2d455c" stroke-opacity="0.18" stroke-width="4" /><g transform="translate(-27 7)"><circle cx="573" cy="382" r="6" fill="#5f8fb8" opacity="0.32" /><circle cx="502" cy="329" r="12" fill="#5f8fb8" opacity="0.17" /><circle cx="731" cy="253" r="12" fill="#5f8fb8" opacity="0.27" /><circle cx="919" cy="144" r="8" fill="#5f8fb8" opacity="0.24" /><circle cx="1026" cy="169" r="13" fill="#5f8fb8" opacity="0.28" /><circle cx="731" cy="160" r="11" fill="#5f8fb8" opacity="0.31" /><circle cx="185" cy="113" r="10" fill="#5f8fb8" opacity="0.31" /><circle cx="645" cy="70" r="11" fill="#5f8fb8" opacity="0.27" /><g transform="translate(600 258)"><circle cx="0" cy="0" r="170" fill="#b8d1e6" opacity="0.35" /><circle cx="0" cy="0" r="150" stroke="#2d455c" stroke-width="8" stroke-linecap="round" stroke-linejoin="round" fill="none" opacity="0.28" /><path d="M-116 24 Q-14 -76 116 8" stroke="#2d455c" stroke-width="12" stroke-linecap="round" stroke-linejoin="round" fill="none" /><path d="M-116 24 L-82 14 L-92 48 Z" fill="#5f8fb8" /><path d="M116 8 L82 -2 L92 32 Z" fill="#5f8fb8" /></g><ellipse cx="600" cy="640" rx="338" ry="88" fill="#c4d7e6" opacity="0.58" /><g transform="translate(0 11)"><ellipse cx="550" cy="528" rx="238" ry="150" fill="#86a6bf" opacity="0.96" /><ellipse cx="794" cy="510" rx="150" ry="118" fill="#86a6bf" opacity="0.98" /><ellipse cx="866" cy="427" rx="45" ry="56" fill="#bdd3e4" opacity="0.95" /><ellipse cx="792" cy="411" rx="38" ry="48" fill="#bdd3e4" opacity="0.95" /><circle cx="834" cy="512" r="10" fill="#2d455c" /><circle cx="876" cy="544" r="8" fill="#4b6982" /><path d="M882 544 C912 536 934 526 954 510" stroke="#2d455c" stroke-width="7" stroke-linecap="round" fill="none" opacity="0.75" /><path d="M882 552 C914 552 934 560 954 574" stroke="#2d455c" stroke-width="7" stroke-linecap="round" fill="none" opacity="0.75" /><path d="M882 560 C914 570 934 592 952 612" stroke="#2d455c" stroke-width="7" stroke-linecap="round" fill="none" opacity="0.75" /><ellipse cx="702" cy="654" rx="64" ry="28" fill="#bdd3e4" opacity="0.62" /><ellipse cx="548" cy="656" rx="64" ry="28" fill="#bdd3e4" opacity="0.62" /></g></g></svg>