<?xml version="1.0" encoding="UTF-8"?><svg xmlns="http://www.w3.org/2000/svg" width="1200" height="760" viewBox="0 0 1200 760" role="img" aria-labelledby="title desc"><title id="title">Treat Trail</title><desc id="desc">Illustration for Treat Trail</desc><defs><linearGradient id="bg" x1="0%" y1="0%" x2="100%" y2="100%"><stop offset="0%" stop-color="#eef6ee" /><stop offset="100%" stop-color="#d4e7cf" /></linearGradient><radialGradient id="mist" cx="20%" cy="0%" r="70%"><stop offset="0%" stop-color="#b8dcb8" stop-opacity="0.72" /><stop offset="100%" stop-color="#ffffff" stop-opacity="0" /></radialGradient></defs><rect width="1200" height="760" rx="36" fill="url(#bg)" /><rect width="1200" height="760" rx="36" fill="url(#mist)" /><rect x="14" y="14" width="1172" height="732" rx="28" fill="none" stroke="#2f4a35" stroke-opacity="0.18" stroke-width="4" /><g transform="translate(11 -8)"><circle cx="976" cy="81" r="5" fill="#6ea06f" opacity="0.27" /><circle cx="104" cy="175" r="13" fill="#6ea06f" opacity="0.17" /><circle cx="1066" cy="70" r="9" fill="#6ea06f" opacity="0.12" /><circle cx="828" cy="85" r="10" fill="#6ea06f" opacity="0.18" /><circle cx="560" cy="196" r="11" fill="#6ea06f" opacity="0.31" /><circle cx="427" cy="224" r="11" fill="#6ea06f" opacity="0.15" /><circle cx="160" cy="108" r="12" fill="#6ea06f" opacity="0.18" /><circle cx="1048" cy="70" r="10" fill="#6ea06f" opacity="0.20" /><g transform="translate(600 258)"><circle cx="0" cy="0" r="170" fill="#b8dcb8" opacity="0.35" /><circle cx="0" cy="0" r="150" stroke="#2f4a35" stroke-width="8" stroke-linecap="round" stroke-linejoin="round" fill="none" opacity="0.28" /><path d="M-116 64 Q-42 14 8 34 Q62 58 116 16" stroke="#2f4a35" stroke-width="12" stroke-linecap="round" stroke-linejoin="round" fill="none" /><circle cx="-86" cy="40" r="11" fill="#6ea06f" /><circle cx="-28" cy="28" r="11" fill="#6ea06f" /><circle cx="26" cy="38" r="11" fill="#6ea06f" /><circle cx="86" cy="24" r="11" fill="#6ea06f" /></g><ellipse cx="600" cy="640" rx="338" ry="88" fill="#bfd5b7" opacity="0.58" /><g transform="translate(0 -8)"><ellipse cx="550" cy="528" rx="238" ry="150" fill="#8ba86e" opacity="0.96" /><ellipse cx="794" cy="510" rx="150" ry="118" fill="#8ba86e" opacity="0.98" /><ellipse cx="866" cy="412" rx="45" ry="56" fill="#b9cf9b" opacity="0.95" /><ellipse cx="792" cy="426" rx="38" ry="48" fill="#b9cf9b" opacity="0.95" /><circle cx="833" cy="512" r="10" fill="#2f4a35" /><circle cx="876" cy="544" r="8" fill="#48633e" /><path d="M882 544 C912 536 934 526 954 510" stroke="#2f4a35" stroke-width="7" stroke-linecap="round" fill="none" opacity="0.75" /><path d="M882 552 C914 552 934 560 954 574" stroke="#2f4a35" stroke-width="7" stroke-linecap="round" fill="none" opacity="0.75" /><path d="M882 560 C914 570 934 592 952 612" stroke="#2f4a35" stroke-width="7" stroke-linecap="round" fill="none" opacity="0.75" /><ellipse cx="702" cy="654" rx="64" ry="28" fill="#b9cf9b" opacity="0.62" /><ellipse cx="548" cy="656" rx="64" ry="28" fill="#b9cf9b" opacity="0.62" /></g></g></svg>