<?xml version="1.0" encoding="UTF-8"?><svg xmlns="http://www.w3.org/2000/svg" width="1200" height="760" viewBox="0 0 1200 760" role="img" aria-labelledby="title desc"><title id="title">Window Watch</title><desc id="desc">Illustration for Window Watch</desc><defs><linearGradient id="bg" x1="0%" y1="0%" x2="100%" y2="100%"><stop offset="0%" stop-color="#fbeef0" /><stop offset="100%" stop-color="#f0d2d9" /></linearGradient><radialGradient id="mist" cx="20%" cy="0%" r="70%"><stop offset="0%" stop-color="#e7b5c4" stop-opacity="0.72" /><stop offset="100%" stop-color="#ffffff" stop-opacity="0" /></radialGradient></defs><rect width="1200" height="760" rx="36" fill="url(#bg)" /><rect width="1200" height="760" rx="36" fill="url(#mist)" /><rect x="14" y="14" width="1172" height="732" rx="28" fill="none" stroke="#5a3641" stroke-opacity="0.18" stroke-width="4" /><g transform="translate(-11 -8)"><circle cx="976" cy="148" r="12" fill="#b86a80" opacity="0.26" /><circle cx="369" cy="104" r="5" fill="#b86a80" opacity="0.29" /><circle cx="1013" cy="394" r="10" fill="#b86a80" opacity="0.30" /><circle cx="211" cy="358" r="14" fill="#b86a80" opacity="0.32" /><circle cx="235" cy="133" r="14" fill="#b86a80" opacity="0.28" /><circle cx="615" cy="410" r="6" fill="#b86a80" opacity="0.20" /><circle cx="978" cy="163" r="10" fill="#b86a80" opacity="0.31" /><circle cx="1020" cy="70" r="6" fill="#b86a80" opacity="0.18" /><g transform="translate(600 258)"><circle cx="0" cy="0" r="170" fill="#e7b5c4" opacity="0.35" /><circle cx="0" cy="0" r="150" stroke="#5a3641" stroke-width="8" stroke-linecap="round" stroke-linejoin="round" fill="none" opacity="0.28" /><rect x="-102" y="-82" width="204" height="164" rx="16" fill="#b86a80" opacity="0.58" /><line x1="0" y1="-82" x2="0" y2="82" stroke="#5a3641" stroke-width="12" stroke-linecap="round" stroke-linejoin="round" fill="none" /><line x1="-102" y1="0" x2="102" y2="0" stroke="#5a3641" stroke-width="12" stroke-linecap="round" stroke-linejoin="round" fill="none" /><circle cx="42" cy="20" r="22" fill="#e7b5c4" opacity="0.92" /><circle cx="50" cy="20" r="6" fill="#5a3641" /></g><ellipse cx="600" cy="640" rx="338" ry="88" fill="#e5c0cb" opacity="0.58" /><g transform="translate(0 -12)"><ellipse cx="550" cy="528" rx="238" ry="150" fill="#c88ca0" opacity="0.96" /><ellipse cx="794" cy="510" rx="150" ry="118" fill="#c88ca0" opacity="0.98" /><ellipse cx="866" cy="430" rx="45" ry="56" fill="#e7b9c7" opacity="0.95" /><ellipse cx="792" cy="408" rx="38" ry="48" fill="#e7b9c7" opacity="0.95" /><circle cx="831" cy="512" r="10" fill="#5a3641" /><circle cx="876" cy="544" r="8" fill="#8e5264" /><path d="M882 544 C912 536 934 526 954 510" stroke="#5a3641" stroke-width="7" stroke-linecap="round" fill="none" opacity="0.75" /><path d="M882 552 C914 552 934 560 954 574" stroke="#5a3641" stroke-width="7" stroke-linecap="round" fill="none" opacity="0.75" /><path d="M882 560 C914 570 934 592 952 612" stroke="#5a3641" stroke-width="7" stroke-linecap="round" fill="none" opacity="0.75" /><ellipse cx="702" cy="654" rx="64" ry="28" fill="#e7b9c7" opacity="0.62" /><ellipse cx="548" cy="656" rx="64" ry="28" fill="#e7b9c7" opacity="0.62" /></g></g></svg>